<?xml version="1.0" encoding="UTF-8"?>
<svg width="617px" height="86px" viewBox="0 0 617 86" version="1.1" xmlns="http://www.w3.org/2000/svg" xmlns:xlink="http://www.w3.org/1999/xlink">
    <title>bw_branding</title>
    <g id="Page-1" stroke="none" stroke-width="1" fill="none" fill-rule="evenodd">
        <g id="bw_branding" fill="#000000" fill-rule="nonzero">
            <path d="M31.1586207,85.3747017 C36.3724138,85.3747017 41.1103448,84.5397244 45.3724138,82.8697698 C49.6344828,81.1998153 53.3103448,78.8052937 56.4,75.686205 C59.4896552,72.5671163 61.862069,68.8338708 63.5172414,64.4864684 C65.1724138,60.139066 66,55.3017183 66,49.9744253 C66,44.1226837 65.2344828,38.8160925 63.7034483,34.0546519 C62.1724138,29.2932112 60.0827586,25.0631197 57.4344828,21.3643773 C54.7862069,17.665635 51.7586207,14.4706393 48.3517241,11.7793902 C44.9448276,9.08814113 41.337931,6.87303612 37.5310345,5.13407517 C33.7241379,3.39511423 29.8965517,2.1046948 26.0482759,1.26281688 C22.2,0.420938959 18.5517241,0 15.1034483,0 C13.1448276,0 11.5862069,0.351932572 10.4275862,1.05579772 C9.26896552,1.75966286 8.68965517,2.78785802 8.68965517,4.1403832 C8.68965517,4.66483174 8.80689655,5.19618092 9.04137931,5.73443074 C9.27586207,6.27268055 9.6,6.79022845 10.0137931,7.28707444 C11.6137931,9.19165071 13.1241379,11.1859353 14.5448276,13.2699282 C15.9655172,15.353921 17.1310345,17.5345229 18.0413793,19.8117336 C18.9517241,22.0889444 19.4068966,24.5110686 19.4068966,27.0781062 C19.4068966,27.8785802 19.337931,28.6652531 19.2,29.4381246 L19.163623,29.6078987 L18.9337703,29.1306755 C18.4529496,28.1800982 17.9003135,27.3095912 17.2758621,26.5191544 C16.1310345,25.0700203 14.8758621,23.9452162 13.5103448,23.1447421 C12.1448276,22.344268 10.8,21.944031 9.47586207,21.944031 C8.56551724,21.944031 7.84137931,22.2338578 7.30344828,22.8135115 C6.76551724,23.3931651 6.49655172,24.1660366 6.49655172,25.132126 C6.49655172,25.6841771 6.54482759,26.4639493 6.64137931,27.4714426 C6.73793103,28.4789358 6.7862069,29.4381246 6.7862069,30.3490089 C6.7862069,32.1431749 6.55862069,33.8062289 6.10344828,35.3381706 C5.64827586,36.8701124 5.08965517,38.4089549 4.42758621,39.9546979 C3.76551724,41.500441 3.08965517,43.1496936 2.4,44.9024558 C1.71034483,46.6552181 1.13793103,48.6288007 0.682758621,50.8232038 C0.227586207,53.0176069 0,55.53634 0,58.3794032 C0,63.7895039 1.28965517,68.523342 3.86896552,72.5809176 C6.44827586,76.6384931 10.0758621,79.7851843 14.7517241,82.0209913 C19.4275862,84.2567982 24.8965517,85.3747017 31.1586207,85.3747017 Z M32.054641,73.7183771 C28.4506851,73.7183771 25.5413849,72.7181568 23.3267402,70.7177162 C21.1120956,68.7172756 20.0047733,66.0753144 20.0047733,62.7918326 C20.0047733,61.081111 20.2523733,59.6118218 20.7475733,58.3839652 C21.2427734,57.1561086 21.8205068,56.0524172 22.4807735,55.0728911 C23.1410402,54.093365 23.7531625,53.1276351 24.3171403,52.1757013 C24.8811181,51.2237675 25.2456404,50.1683626 25.4107071,49.0094867 C25.4382182,48.7887484 25.5276293,48.650787 25.6789404,48.5956024 C25.8302515,48.5404179 25.9884405,48.5818063 26.1535071,48.7197677 C27.0338628,49.5199439 27.7835406,50.4097951 28.4025407,51.3893212 C29.0215407,52.3688473 29.5511296,53.4380483 29.9913075,54.5969242 C31.0367298,53.1069409 31.7520187,51.0237234 32.1371743,48.3472719 C32.5223299,45.6708203 32.5635966,42.7736305 32.2609743,39.6557024 C32.2059521,39.4349641 32.2472188,39.2694104 32.3847743,39.1590413 C32.5223299,39.0486721 32.6873966,39.034876 32.8799744,39.1176528 C35.7136191,40.4420825 38.0933304,42.1803964 40.0191083,44.3325945 C41.9448863,46.4847927 43.3960975,48.8646272 44.372742,51.472098 C45.3493866,54.0795689 45.8377088,56.6663455 45.8377088,59.2324279 C45.8377088,61.8536949 45.3287532,64.2542236 44.310842,66.4340141 C43.2929308,68.6138045 41.766064,70.3728126 39.7302416,71.7110384 C37.6944192,73.0492642 35.1358857,73.7183771 32.054641,73.7183771 Z" id="􀙭" transform="translate(33.000000, 42.687351) scale(-1, 1) translate(-33.000000, -42.687351) "></path>
            <path d="M101.34,63.72 C103.54,63.72 105.53,63.34 107.31,62.58 C109.09,61.82 110.61,60.78 111.87,59.46 C113.13,58.14 114.11,56.58 114.81,54.78 C115.51,52.98 115.86,51.04 115.86,48.96 C115.86,46.88 115.51,44.94 114.81,43.14 C114.11,41.34 113.13,39.78 111.87,38.46 C110.61,37.14 109.09,36.1 107.31,35.34 C105.53,34.58 103.54,34.2 101.34,34.2 C99.3,34.2 97.32,34.67 95.4,35.61 C93.48,36.55 91.92,37.94 90.72,39.78 L90.72,39.78 L90.6,39.78 L90.6,17.64 L86.52,17.64 L86.52,63 L90.6,63 L90.6,58.26 L90.72,58.26 C91.92,60.06 93.48,61.42 95.4,62.34 C97.32,63.26 99.3,63.72 101.34,63.72 Z M100.92,60.24 C99.36,60.24 97.92,59.95 96.6,59.37 C95.28,58.79 94.14,58 93.18,57 C92.22,56 91.47,54.81 90.93,53.43 C90.39,52.05 90.12,50.56 90.12,48.96 C90.12,47.36 90.39,45.87 90.93,44.49 C91.47,43.11 92.22,41.91 93.18,40.89 C94.14,39.87 95.28,39.07 96.6,38.49 C97.92,37.91 99.36,37.62 100.92,37.62 C102.6,37.62 104.1,37.92 105.42,38.52 C106.74,39.12 107.85,39.93 108.75,40.95 C109.65,41.97 110.34,43.17 110.82,44.55 C111.3,45.93 111.54,47.4 111.54,48.96 C111.54,50.52 111.3,51.99 110.82,53.37 C110.34,54.75 109.65,55.95 108.75,56.97 C107.85,57.99 106.74,58.79 105.42,59.37 C104.1,59.95 102.6,60.24 100.92,60.24 Z M137.1,63.72 C139.42,63.72 141.59,63.26 143.61,62.34 C145.63,61.42 147.48,59.9 149.16,57.78 L149.16,57.78 L146.1,55.38 C145.3,56.66 144.13,57.79 142.59,58.77 C141.05,59.75 139.22,60.24 137.1,60.24 C135.66,60.24 134.32,59.97 133.08,59.43 C131.84,58.89 130.76,58.16 129.84,57.24 C128.92,56.32 128.2,55.24 127.68,54 C127.16,52.76 126.88,51.44 126.84,50.04 L126.84,50.04 L150.12,50.04 C150.16,49.68 150.18,49.34 150.18,49.02 L150.18,49.02 L150.18,48.12 C150.18,46.2 149.89,44.4 149.31,42.72 C148.73,41.04 147.88,39.57 146.76,38.31 C145.64,37.05 144.24,36.05 142.56,35.31 C140.88,34.57 138.94,34.2 136.74,34.2 C134.74,34.2 132.88,34.57 131.16,35.31 C129.44,36.05 127.94,37.08 126.66,38.4 C125.38,39.72 124.38,41.28 123.66,43.08 C122.94,44.88 122.58,46.84 122.58,48.96 C122.58,51.08 122.95,53.04 123.69,54.84 C124.43,56.64 125.44,58.2 126.72,59.52 C128,60.84 129.53,61.87 131.31,62.61 C133.09,63.35 135.02,63.72 137.1,63.72 Z M146.04,46.8 L126.9,46.8 C126.98,45.6 127.28,44.45 127.8,43.35 C128.32,42.25 129.02,41.27 129.9,40.41 C130.78,39.55 131.8,38.87 132.96,38.37 C134.12,37.87 135.38,37.62 136.74,37.62 C139.66,37.62 141.91,38.49 143.49,40.23 C145.07,41.97 145.92,44.16 146.04,46.8 L146.04,46.8 Z M166.8,63.36 C167.72,63.36 168.57,63.29 169.35,63.15 C170.13,63.01 170.88,62.8 171.6,62.52 L171.6,62.52 L171.42,58.98 C170.86,59.26 170.27,59.48 169.65,59.64 C169.03,59.8 168.44,59.88 167.88,59.88 C167.28,59.88 166.72,59.81 166.2,59.67 C165.68,59.53 165.23,59.27 164.85,58.89 C164.47,58.51 164.18,57.98 163.98,57.3 C163.78,56.62 163.68,55.76 163.68,54.72 L163.68,54.72 L163.68,38.34 L171.6,38.34 L171.6,34.92 L163.68,34.92 L163.68,27 L159.6,27 L159.6,34.92 L153.78,34.92 L153.78,38.34 L159.6,38.34 L159.6,55.86 C159.6,57.42 159.83,58.68 160.29,59.64 C160.75,60.6 161.34,61.36 162.06,61.92 C162.78,62.48 163.56,62.86 164.4,63.06 C165.24,63.26 166.04,63.36 166.8,63.36 Z M185.1,63.36 C186.02,63.36 186.87,63.29 187.65,63.15 C188.43,63.01 189.18,62.8 189.9,62.52 L189.9,62.52 L189.72,58.98 C189.16,59.26 188.57,59.48 187.95,59.64 C187.33,59.8 186.74,59.88 186.18,59.88 C185.58,59.88 185.02,59.81 184.5,59.67 C183.98,59.53 183.53,59.27 183.15,58.89 C182.77,58.51 182.48,57.98 182.28,57.3 C182.08,56.62 181.98,55.76 181.98,54.72 L181.98,54.72 L181.98,38.34 L189.9,38.34 L189.9,34.92 L181.98,34.92 L181.98,27 L177.9,27 L177.9,34.92 L172.08,34.92 L172.08,38.34 L177.9,38.34 L177.9,55.86 C177.9,57.42 178.13,58.68 178.59,59.64 C179.05,60.6 179.64,61.36 180.36,61.92 C181.08,62.48 181.86,62.86 182.7,63.06 C183.54,63.26 184.34,63.36 185.1,63.36 Z M208.74,63.72 C211.06,63.72 213.23,63.26 215.25,62.34 C217.27,61.42 219.12,59.9 220.8,57.78 L220.8,57.78 L217.74,55.38 C216.94,56.66 215.77,57.79 214.23,58.77 C212.69,59.75 210.86,60.24 208.74,60.24 C207.3,60.24 205.96,59.97 204.72,59.43 C203.48,58.89 202.4,58.16 201.48,57.24 C200.56,56.32 199.84,55.24 199.32,54 C198.8,52.76 198.52,51.44 198.48,50.04 L198.48,50.04 L221.76,50.04 C221.8,49.68 221.82,49.34 221.82,49.02 L221.82,49.02 L221.82,48.12 C221.82,46.2 221.53,44.4 220.95,42.72 C220.37,41.04 219.52,39.57 218.4,38.31 C217.28,37.05 215.88,36.05 214.2,35.31 C212.52,34.57 210.58,34.2 208.38,34.2 C206.38,34.2 204.52,34.57 202.8,35.31 C201.08,36.05 199.58,37.08 198.3,38.4 C197.02,39.72 196.02,41.28 195.3,43.08 C194.58,44.88 194.22,46.84 194.22,48.96 C194.22,51.08 194.59,53.04 195.33,54.84 C196.07,56.64 197.08,58.2 198.36,59.52 C199.64,60.84 201.17,61.87 202.95,62.61 C204.73,63.35 206.66,63.72 208.74,63.72 Z M217.68,46.8 L198.54,46.8 C198.62,45.6 198.92,44.45 199.44,43.35 C199.96,42.25 200.66,41.27 201.54,40.41 C202.42,39.55 203.44,38.87 204.6,38.37 C205.76,37.87 207.02,37.62 208.38,37.62 C211.3,37.62 213.55,38.49 215.13,40.23 C216.71,41.97 217.56,44.16 217.68,46.8 L217.68,46.8 Z M234.66,63 L234.66,48.6 C234.66,46.72 234.89,45.11 235.35,43.77 C235.81,42.43 236.41,41.33 237.15,40.47 C237.89,39.61 238.76,38.98 239.76,38.58 C240.76,38.18 241.8,37.98 242.88,37.98 C243.44,37.98 244,38.02 244.56,38.1 C245.12,38.18 245.52,38.26 245.76,38.34 L245.76,38.34 L246.3,34.5 C245.86,34.38 245.43,34.3 245.01,34.26 C244.59,34.22 244.12,34.2 243.6,34.2 C241.6,34.2 239.8,34.71 238.2,35.73 C236.6,36.75 235.4,38.08 234.6,39.72 L234.6,39.72 L234.48,39.72 C234.48,39.12 234.46,38.36 234.42,37.44 C234.38,36.52 234.32,35.68 234.24,34.92 L234.24,34.92 L230.34,34.92 C230.42,35.88 230.48,36.96 230.52,38.16 C230.56,39.36 230.58,40.34 230.58,41.1 L230.58,63 L234.66,63 Z M261.66,63 L269.04,40.26 L269.16,40.26 L276.66,63 L281.1,63 L289.98,34.92 L285.66,34.92 L278.94,57.72 L278.82,57.72 L271.14,34.92 L267.18,34.92 L259.62,57.72 L259.5,57.72 L252.72,34.92 L248.34,34.92 L257.22,63 L261.66,63 Z M309.84,63.72 C312.04,63.72 314.06,63.35 315.9,62.61 C317.74,61.87 319.32,60.84 320.64,59.52 C321.96,58.2 322.99,56.64 323.73,54.84 C324.47,53.04 324.84,51.08 324.84,48.96 C324.84,46.84 324.47,44.88 323.73,43.08 C322.99,41.28 321.96,39.72 320.64,38.4 C319.32,37.08 317.74,36.05 315.9,35.31 C314.06,34.57 312.04,34.2 309.84,34.2 C307.68,34.2 305.68,34.57 303.84,35.31 C302,36.05 300.42,37.08 299.1,38.4 C297.78,39.72 296.75,41.28 296.01,43.08 C295.27,44.88 294.9,46.84 294.9,48.96 C294.9,51.08 295.27,53.04 296.01,54.84 C296.75,56.64 297.78,58.2 299.1,59.52 C300.42,60.84 302,61.87 303.84,62.61 C305.68,63.35 307.68,63.72 309.84,63.72 Z M309.84,60.24 C308.2,60.24 306.73,59.95 305.43,59.37 C304.13,58.79 303.02,57.99 302.1,56.97 C301.18,55.95 300.47,54.75 299.97,53.37 C299.47,51.99 299.22,50.52 299.22,48.96 C299.22,47.4 299.47,45.93 299.97,44.55 C300.47,43.17 301.18,41.97 302.1,40.95 C303.02,39.93 304.13,39.12 305.43,38.52 C306.73,37.92 308.2,37.62 309.84,37.62 C311.48,37.62 312.96,37.92 314.28,38.52 C315.6,39.12 316.72,39.93 317.64,40.95 C318.56,41.97 319.27,43.17 319.77,44.55 C320.27,45.93 320.52,47.4 320.52,48.96 C320.52,50.52 320.27,51.99 319.77,53.37 C319.27,54.75 318.56,55.95 317.64,56.97 C316.72,57.99 315.6,58.79 314.28,59.37 C312.96,59.95 311.48,60.24 309.84,60.24 Z M337.68,63 L337.68,48.6 C337.68,46.72 337.91,45.11 338.37,43.77 C338.83,42.43 339.43,41.33 340.17,40.47 C340.91,39.61 341.78,38.98 342.78,38.58 C343.78,38.18 344.82,37.98 345.9,37.98 C346.46,37.98 347.02,38.02 347.58,38.1 C348.14,38.18 348.54,38.26 348.78,38.34 L348.78,38.34 L349.32,34.5 C348.88,34.38 348.45,34.3 348.03,34.26 C347.61,34.22 347.14,34.2 346.62,34.2 C344.62,34.2 342.82,34.71 341.22,35.73 C339.62,36.75 338.42,38.08 337.62,39.72 L337.62,39.72 L337.5,39.72 C337.5,39.12 337.48,38.36 337.44,37.44 C337.4,36.52 337.34,35.68 337.26,34.92 L337.26,34.92 L333.36,34.92 C333.44,35.88 333.5,36.96 333.54,38.16 C333.58,39.36 333.6,40.34 333.6,41.1 L333.6,63 L337.68,63 Z M359.4,63 L359.4,48.24 L359.58,48.24 L373.86,63 L379.86,63 L364.26,47.76 L378.42,34.92 L372.54,34.92 L359.58,47.58 L359.4,47.58 L359.4,17.64 L355.32,17.64 L355.32,63 L359.4,63 Z M397.62,63.72 C399.82,63.72 401.84,63.35 403.68,62.61 C405.52,61.87 407.1,60.84 408.42,59.52 C409.74,58.2 410.77,56.64 411.51,54.84 C412.25,53.04 412.62,51.08 412.62,48.96 C412.62,46.84 412.25,44.88 411.51,43.08 C410.77,41.28 409.74,39.72 408.42,38.4 C407.1,37.08 405.52,36.05 403.68,35.31 C401.84,34.57 399.82,34.2 397.62,34.2 C395.46,34.2 393.46,34.57 391.62,35.31 C389.78,36.05 388.2,37.08 386.88,38.4 C385.56,39.72 384.53,41.28 383.79,43.08 C383.05,44.88 382.68,46.84 382.68,48.96 C382.68,51.08 383.05,53.04 383.79,54.84 C384.53,56.64 385.56,58.2 386.88,59.52 C388.2,60.84 389.78,61.87 391.62,62.61 C393.46,63.35 395.46,63.72 397.62,63.72 Z M397.62,60.24 C395.98,60.24 394.51,59.95 393.21,59.37 C391.91,58.79 390.8,57.99 389.88,56.97 C388.96,55.95 388.25,54.75 387.75,53.37 C387.25,51.99 387,50.52 387,48.96 C387,47.4 387.25,45.93 387.75,44.55 C388.25,43.17 388.96,41.97 389.88,40.95 C390.8,39.93 391.91,39.12 393.21,38.52 C394.51,37.92 395.98,37.62 397.62,37.62 C399.26,37.62 400.74,37.92 402.06,38.52 C403.38,39.12 404.5,39.93 405.42,40.95 C406.34,41.97 407.05,43.17 407.55,44.55 C408.05,45.93 408.3,47.4 408.3,48.96 C408.3,50.52 408.05,51.99 407.55,53.37 C407.05,54.75 406.34,55.95 405.42,56.97 C404.5,57.99 403.38,58.79 402.06,59.37 C400.74,59.95 399.26,60.24 397.62,60.24 Z M431.82,63.72 C433.82,63.72 435.72,63.21 437.52,62.19 C439.32,61.17 440.62,59.84 441.42,58.2 L441.42,58.2 L441.54,58.2 C441.54,58.8 441.56,59.56 441.6,60.48 C441.64,61.4 441.7,62.24 441.78,63 L441.78,63 L445.68,63 C445.6,62.04 445.54,60.96 445.5,59.76 C445.46,58.56 445.44,57.58 445.44,56.82 L445.44,56.82 L445.44,34.92 L441.36,34.92 L441.36,49.32 C441.36,51.2 441.12,52.83 440.64,54.21 C440.16,55.59 439.52,56.73 438.72,57.63 C437.92,58.53 437.01,59.2 435.99,59.64 C434.97,60.08 433.92,60.3 432.84,60.3 C431.36,60.3 430.13,60.06 429.15,59.58 C428.17,59.1 427.39,58.43 426.81,57.57 C426.23,56.71 425.82,55.68 425.58,54.48 C425.34,53.28 425.22,51.94 425.22,50.46 L425.22,50.46 L425.22,34.92 L421.14,34.92 L421.14,52.14 C421.14,55.62 422.03,58.42 423.81,60.54 C425.59,62.66 428.26,63.72 431.82,63.72 Z M464.1,63.36 C465.02,63.36 465.87,63.29 466.65,63.15 C467.43,63.01 468.18,62.8 468.9,62.52 L468.9,62.52 L468.72,58.98 C468.16,59.26 467.57,59.48 466.95,59.64 C466.33,59.8 465.74,59.88 465.18,59.88 C464.58,59.88 464.02,59.81 463.5,59.67 C462.98,59.53 462.53,59.27 462.15,58.89 C461.77,58.51 461.48,57.98 461.28,57.3 C461.08,56.62 460.98,55.76 460.98,54.72 L460.98,54.72 L460.98,38.34 L468.9,38.34 L468.9,34.92 L460.98,34.92 L460.98,27 L456.9,27 L456.9,34.92 L451.08,34.92 L451.08,38.34 L456.9,38.34 L456.9,55.86 C456.9,57.42 457.13,58.68 457.59,59.64 C458.05,60.6 458.64,61.36 459.36,61.92 C460.08,62.48 460.86,62.86 461.7,63.06 C462.54,63.26 463.34,63.36 464.1,63.36 Z M483.24,63.72 C484.52,63.72 485.79,63.57 487.05,63.27 C488.31,62.97 489.44,62.47 490.44,61.77 C491.44,61.07 492.25,60.17 492.87,59.07 C493.49,57.97 493.8,56.62 493.8,55.02 C493.8,52.82 493.01,51.07 491.43,49.77 C489.85,48.47 487.4,47.48 484.08,46.8 C481.76,46.32 480.06,45.73 478.98,45.03 C477.9,44.33 477.36,43.32 477.36,42 C477.36,41.24 477.53,40.58 477.87,40.02 C478.21,39.46 478.66,39 479.22,38.64 C479.78,38.28 480.42,38.02 481.14,37.86 C481.86,37.7 482.58,37.62 483.3,37.62 C484.86,37.62 486.25,37.99 487.47,38.73 C488.69,39.47 489.6,40.42 490.2,41.58 L490.2,41.58 L493.32,39.24 C492.4,37.64 491.02,36.4 489.18,35.52 C487.34,34.64 485.44,34.2 483.48,34.2 C482.2,34.2 480.96,34.36 479.76,34.68 C478.56,35 477.49,35.49 476.55,36.15 C475.61,36.81 474.86,37.65 474.3,38.67 C473.74,39.69 473.46,40.92 473.46,42.36 C473.46,43.68 473.72,44.78 474.24,45.66 C474.76,46.54 475.42,47.27 476.22,47.85 C477.02,48.43 477.89,48.87 478.83,49.17 C479.77,49.47 480.66,49.72 481.5,49.92 C484.18,50.56 486.23,51.25 487.65,51.99 C489.07,52.73 489.78,53.84 489.78,55.32 C489.78,56.24 489.6,57.01 489.24,57.63 C488.88,58.25 488.4,58.76 487.8,59.16 C487.2,59.56 486.5,59.84 485.7,60 C484.9,60.16 484.06,60.24 483.18,60.24 C481.5,60.24 479.96,59.82 478.56,58.98 C477.16,58.14 476.1,57.1 475.38,55.86 L475.38,55.86 L472.14,58.26 C473.42,60.14 475.06,61.52 477.06,62.4 C479.06,63.28 481.12,63.72 483.24,63.72 Z M504.3,63.36 C505.26,63.36 506.04,63.03 506.64,62.37 C507.24,61.71 507.54,60.96 507.54,60.12 C507.54,59.28 507.24,58.53 506.64,57.87 C506.04,57.21 505.26,56.88 504.3,56.88 C503.34,56.88 502.56,57.21 501.96,57.87 C501.36,58.53 501.06,59.28 501.06,60.12 C501.06,60.96 501.36,61.71 501.96,62.37 C502.56,63.03 503.34,63.36 504.3,63.36 Z M525.12,63.72 C527.4,63.72 529.35,63.31 530.97,62.49 C532.59,61.67 534.04,60.32 535.32,58.44 L535.32,58.44 L535.44,58.44 C535.44,59.2 535.48,59.98 535.56,60.78 C535.64,61.58 535.74,62.32 535.86,63 L535.86,63 L539.52,63 C539.36,62.2 539.24,61.22 539.16,60.06 C539.08,58.9 539.04,57.78 539.04,56.7 L539.04,56.7 L539.04,44.4 C539.04,42.68 538.76,41.18 538.2,39.9 C537.64,38.62 536.86,37.56 535.86,36.72 C534.86,35.88 533.7,35.25 532.38,34.83 C531.06,34.41 529.64,34.2 528.12,34.2 C525.72,34.2 523.57,34.58 521.67,35.34 C519.77,36.1 518.24,37.06 517.08,38.22 L517.08,38.22 L519.36,40.92 C520.36,39.92 521.58,39.12 523.02,38.52 C524.46,37.92 526.02,37.62 527.7,37.62 C530.14,37.62 532,38.22 533.28,39.42 C534.56,40.62 535.2,42.44 535.2,44.88 L535.2,44.88 L535.2,45.78 C532.64,45.78 530.17,45.87 527.79,46.05 C525.41,46.23 523.3,46.63 521.46,47.25 C519.62,47.87 518.15,48.81 517.05,50.07 C515.95,51.33 515.4,53.04 515.4,55.2 C515.4,56.76 515.71,58.08 516.33,59.16 C516.95,60.24 517.73,61.12 518.67,61.8 C519.61,62.48 520.65,62.97 521.79,63.27 C522.93,63.57 524.04,63.72 525.12,63.72 Z M526.2,60.36 C525.4,60.36 524.61,60.27 523.83,60.09 C523.05,59.91 522.34,59.61 521.7,59.19 C521.06,58.77 520.55,58.22 520.17,57.54 C519.79,56.86 519.6,56.02 519.6,55.02 C519.6,53.7 520.04,52.64 520.92,51.84 C521.8,51.04 522.93,50.43 524.31,50.01 C525.69,49.59 527.23,49.31 528.93,49.17 C530.63,49.03 532.32,48.96 534,48.96 L534,48.96 L535.2,48.96 L535.2,51.06 C535.2,52.3 535,53.48 534.6,54.6 C534.2,55.72 533.62,56.71 532.86,57.57 C532.1,58.43 531.16,59.11 530.04,59.61 C528.92,60.11 527.64,60.36 526.2,60.36 Z M553.62,77.4 L553.62,58.26 L553.8,58.26 C554.96,60.02 556.51,61.37 558.45,62.31 C560.39,63.25 562.36,63.72 564.36,63.72 C566.56,63.72 568.55,63.34 570.33,62.58 C572.11,61.82 573.63,60.78 574.89,59.46 C576.15,58.14 577.13,56.58 577.83,54.78 C578.53,52.98 578.88,51.04 578.88,48.96 C578.88,46.88 578.53,44.94 577.83,43.14 C577.13,41.34 576.15,39.78 574.89,38.46 C573.63,37.14 572.11,36.1 570.33,35.34 C568.55,34.58 566.56,34.2 564.36,34.2 C562.36,34.2 560.39,34.67 558.45,35.61 C556.51,36.55 554.96,37.94 553.8,39.78 L553.8,39.78 L553.62,39.78 L553.62,34.92 L549.54,34.92 L549.54,77.4 L553.62,77.4 Z M563.94,60.24 C562.38,60.24 560.94,59.95 559.62,59.37 C558.3,58.79 557.16,58 556.2,57 C555.24,56 554.49,54.81 553.95,53.43 C553.41,52.05 553.14,50.56 553.14,48.96 C553.14,47.36 553.41,45.87 553.95,44.49 C554.49,43.11 555.24,41.91 556.2,40.89 C557.16,39.87 558.3,39.07 559.62,38.49 C560.94,37.91 562.38,37.62 563.94,37.62 C565.62,37.62 567.12,37.92 568.44,38.52 C569.76,39.12 570.87,39.93 571.77,40.95 C572.67,41.97 573.36,43.17 573.84,44.55 C574.32,45.93 574.56,47.4 574.56,48.96 C574.56,50.52 574.32,51.99 573.84,53.37 C573.36,54.75 572.67,55.95 571.77,56.97 C570.87,57.99 569.76,58.79 568.44,59.37 C567.12,59.95 565.62,60.24 563.94,60.24 Z M591.72,77.4 L591.72,58.26 L591.9,58.26 C593.06,60.02 594.61,61.37 596.55,62.31 C598.49,63.25 600.46,63.72 602.46,63.72 C604.66,63.72 606.65,63.34 608.43,62.58 C610.21,61.82 611.73,60.78 612.99,59.46 C614.25,58.14 615.23,56.58 615.93,54.78 C616.63,52.98 616.98,51.04 616.98,48.96 C616.98,46.88 616.63,44.94 615.93,43.14 C615.23,41.34 614.25,39.78 612.99,38.46 C611.73,37.14 610.21,36.1 608.43,35.34 C606.65,34.58 604.66,34.2 602.46,34.2 C600.46,34.2 598.49,34.67 596.55,35.61 C594.61,36.55 593.06,37.94 591.9,39.78 L591.9,39.78 L591.72,39.78 L591.72,34.92 L587.64,34.92 L587.64,77.4 L591.72,77.4 Z M602.04,60.24 C600.48,60.24 599.04,59.95 597.72,59.37 C596.4,58.79 595.26,58 594.3,57 C593.34,56 592.59,54.81 592.05,53.43 C591.51,52.05 591.24,50.56 591.24,48.96 C591.24,47.36 591.51,45.87 592.05,44.49 C592.59,43.11 593.34,41.91 594.3,40.89 C595.26,39.87 596.4,39.07 597.72,38.49 C599.04,37.91 600.48,37.62 602.04,37.62 C603.72,37.62 605.22,37.92 606.54,38.52 C607.86,39.12 608.97,39.93 609.87,40.95 C610.77,41.97 611.46,43.17 611.94,44.55 C612.42,45.93 612.66,47.4 612.66,48.96 C612.66,50.52 612.42,51.99 611.94,53.37 C611.46,54.75 610.77,55.95 609.87,56.97 C608.97,57.99 607.86,58.79 606.54,59.37 C605.22,59.95 603.72,60.24 602.04,60.24 Z" id="betterworkouts.app"></path>
        </g>
    </g>
</svg>