<?xml version="1.0" encoding="UTF-8"?>
<svg width="3144px" height="365px" viewBox="0 0 3144 365" version="1.1" xmlns="http://www.w3.org/2000/svg" xmlns:xlink="http://www.w3.org/1999/xlink">
    <title>bw_logo_text</title>
    <g id="Social-Media" stroke="none" stroke-width="1" fill="none" fill-rule="evenodd">
        <g id="bw_logo_text" transform="translate(0.480519, 0.922078)" fill="#000000" fill-rule="nonzero">
            <path d="M173.093166,265.096485 C173.093166,282.583706 170.247799,297.209382 164.557065,308.973512 C159.182482,320.737643 152.227141,330.276127 143.691039,337.588965 C135.154938,344.583853 125.670381,349.671045 115.237368,352.850539 C105.120507,355.712085 95.3197983,357.142857 85.8352412,357.142857 L2.27373675e-13,357.142857 L2.27373675e-13,19.4805195 L75.8764563,19.4805195 C85.3610134,19.4805195 95.1617223,20.7523174 105.278583,23.2959131 C115.395444,25.8395089 124.563849,30.2908015 132.783799,36.6497909 C141.3199,42.6908308 148.275242,51.1164918 153.649824,61.9267738 C159.024406,72.4191063 161.711698,85.7729841 161.711698,101.988407 C161.711698,113.434588 160.289014,123.449996 157.443647,132.034632 C154.914432,140.301318 151.436761,147.614156 147.010634,153.973145 C142.584508,160.014185 137.526077,165.101377 131.835343,169.23472 C126.144609,173.050114 120.295798,176.070634 114.288912,178.29628 L114.288912,179.250128 C120.295798,180.521926 126.776912,183.065522 133.732254,186.880916 C140.687596,190.696309 147.010634,196.10145 152.701368,203.096339 C158.708254,209.773278 163.608609,218.357913 167.402432,228.850246 C171.196255,239.024629 173.093166,251.106709 173.093166,265.096485 Z M130.886887,106.757649 C130.886887,95.6294177 129.148052,86.2499083 125.670381,78.619121 C122.508862,70.9883337 118.082735,64.9472938 112.392001,60.4960012 C107.017419,55.7267591 100.852457,52.3882897 93.8971147,50.4805929 C86.9417729,48.572896 79.8283551,47.6190476 72.5568614,47.6190476 L31.2990382,47.6190476 L31.2990382,167.327023 L73.5053171,167.327023 C80.4606589,167.327023 87.2579248,166.2142 93.8971147,163.988554 C100.852457,161.762908 107.017419,158.265463 112.392001,153.496221 C117.766583,148.40903 122.19271,142.05004 125.670381,134.419253 C129.148052,126.788466 130.886887,117.567931 130.886887,106.757649 Z M140.371444,263.188789 C140.371444,250.47081 138.474533,239.819503 134.68071,231.234867 C130.886887,222.332282 125.986533,215.178419 119.979647,209.773278 C113.97276,204.368137 107.175495,200.393768 99.5878489,197.850172 C92.3163552,195.306577 85.2029374,194.034779 78.2475956,194.034779 L31.2990382,194.034779 L31.2990382,329.004329 L78.2475956,329.004329 C86.7836969,329.004329 94.8455704,327.732531 102.433216,325.188935 C110.020862,322.64534 116.660052,318.670971 122.350786,313.26583 C128.04152,307.860689 132.467647,301.024776 135.629166,292.758089 C138.790685,284.491403 140.371444,274.63497 140.371444,263.188789 Z M230.630836,357.142857 L230.630836,19.4805195 L365.785774,19.4805195 L365.785774,49.0498202 L262.87833,49.0498202 L262.87833,167.803947 L359.146584,167.803947 L359.146584,195.942476 L262.87833,195.942476 L262.87833,327.096632 L370.528052,327.096632 L370.528052,357.142857 L230.630836,357.142857 Z M487.644548,48.0959718 L487.644548,357.142857 L454.925791,357.142857 L454.925791,48.0959718 L390.429815,48.0959718 L390.429815,19.4805195 L552.613764,19.4805195 L552.613764,48.0959718 L487.644548,48.0959718 Z M649.741556,48.0959718 L649.741556,357.142857 L617.019834,357.142857 L617.019834,48.0959718 L552.514967,48.0959718 L552.514967,19.4805195 L714.710772,19.4805195 L714.710772,48.0959718 L649.741556,48.0959718 Z M753.02443,357.142857 L753.02443,19.4805195 L888.179368,19.4805195 L888.179368,49.0498202 L785.271924,49.0498202 L785.271924,167.803947 L881.540178,167.803947 L881.540178,195.942476 L785.271924,195.942476 L785.271924,327.096632 L892.921647,327.096632 L892.921647,357.142857 L753.02443,357.142857 Z M1087.80953,357.142857 L1027.10837,200.711718 L983.953635,200.711718 L983.953635,357.142857 L951.231913,357.142857 L951.231913,19.4805195 L1031.85065,19.4805195 C1042.91596,19.4805195 1053.50705,21.0702668 1063.62391,24.2497615 C1074.05693,27.1113068 1083.22533,32.0395236 1091.12913,39.0344119 C1099.34908,46.0293003 1105.83019,55.2498349 1110.57247,66.6960158 C1115.6309,78.1421968 1118.16012,92.1319735 1118.16012,108.665346 C1118.16012,122.973072 1116.26321,135.373101 1112.46938,145.865434 C1108.99171,156.039817 1104.24943,164.624453 1098.24255,171.619341 C1092.55181,178.614229 1086.0707,184.01937 1078.79921,187.834764 C1071.84386,191.650158 1064.88852,194.034779 1057.93318,194.988627 L1123.37662,357.142857 L1087.80953,357.142857 Z M1085.91262,110.096119 C1085.91262,98.0140387 1084.17379,87.9986304 1080.69612,80.0498936 C1077.5346,71.7832074 1073.10847,65.2652432 1067.41774,60.4960012 C1062.04315,55.7267591 1055.72012,52.3882897 1048.44862,50.4805929 C1041.49328,48.572896 1034.22179,47.6190476 1026.63414,47.6190476 L983.953635,47.6190476 L983.953635,174.480886 L1028.05683,174.480886 C1046.07748,174.480886 1060.14624,168.916771 1070.2631,157.788539 C1080.69612,146.342358 1085.91262,130.444885 1085.91262,110.096119 Z" id="Shape"></path>
            <path d="M1290.18303,136.363636 L1341.32558,316.287879 L1342.27266,316.287879 L1401.46542,136.363636 L1433.66628,136.363636 L1492.85903,316.287879 L1493.80612,316.287879 L1544.94866,136.363636 L1581.88494,136.363636 L1511.80072,357.954545 L1476.7586,357.954545 L1418.03939,176.136364 L1417.09231,176.136364 L1358.37309,357.954545 L1323.33098,357.954545 L1253.24675,136.363636 L1290.18303,136.363636 Z M1812.35194,247.159091 C1812.35194,234.848485 1810.29993,223.32702 1806.1959,212.594697 C1802.40756,201.862374 1796.8829,192.550505 1789.62192,184.659091 C1782.36094,176.767677 1773.52149,170.612374 1763.10357,166.193182 C1753.00134,161.458333 1741.47848,159.090909 1728.535,159.090909 C1715.59151,159.090909 1703.91081,161.458333 1693.49289,166.193182 C1683.39065,170.612374 1674.70905,176.767677 1667.44807,184.659091 C1660.50279,192.550505 1654.97813,201.862374 1650.8741,212.594697 C1647.08576,223.32702 1645.1916,234.848485 1645.1916,247.159091 C1645.1916,259.469697 1647.08576,270.991162 1650.8741,281.723485 C1654.97813,292.455808 1660.50279,301.767677 1667.44807,309.659091 C1674.70905,317.550505 1683.39065,323.863636 1693.49289,328.598485 C1703.91081,333.017677 1715.59151,335.227273 1728.535,335.227273 C1741.47848,335.227273 1753.00134,333.017677 1763.10357,328.598485 C1773.52149,323.863636 1782.36094,317.550505 1789.62192,309.659091 C1796.8829,301.767677 1802.40756,292.455808 1806.1959,281.723485 C1810.29993,270.991162 1812.35194,259.469697 1812.35194,247.159091 Z M1846.44697,247.159091 C1846.44697,263.888889 1843.44787,279.356061 1837.44967,293.560606 C1831.76717,307.765152 1823.71695,320.075758 1813.29903,330.492424 C1802.8811,340.909091 1790.41116,349.116162 1775.8892,355.113636 C1761.68294,360.795455 1745.89821,363.636364 1728.535,363.636364 C1711.48748,363.636364 1695.70275,360.795455 1681.18079,355.113636 C1666.97453,349.116162 1654.66244,340.909091 1644.24451,330.492424 C1633.82659,320.075758 1625.61852,307.765152 1619.62032,293.560606 C1613.93782,279.356061 1611.09657,263.888889 1611.09657,247.159091 C1611.09657,230.429293 1613.93782,214.962121 1619.62032,200.757576 C1625.61852,186.55303 1633.82659,174.242424 1644.24451,163.825758 C1654.66244,153.409091 1666.97453,145.359848 1681.18079,139.67803 C1695.70275,133.680556 1711.48748,130.681818 1728.535,130.681818 C1745.89821,130.681818 1761.68294,133.680556 1775.8892,139.67803 C1790.41116,145.359848 1802.8811,153.409091 1813.29903,163.825758 C1823.71695,174.242424 1831.76717,186.55303 1837.44967,200.757576 C1843.44787,214.962121 1846.44697,230.429293 1846.44697,247.159091 Z M1906.47829,205.492424 C1906.47829,195.707071 1906.1626,185.763889 1905.53121,175.662879 C1905.21551,165.561869 1904.89982,152.462121 1904.58412,136.363636 L1935.36436,136.363636 L1935.36436,177.556818 L1936.31144,177.556818 C1938.5213,171.559343 1941.67825,165.877525 1945.78228,160.511364 C1949.88631,154.829545 1954.77958,149.77904 1960.46209,145.359848 C1966.46029,140.940657 1973.24772,137.468434 1980.82439,134.943182 C1988.71676,132.102273 1997.55621,130.681818 2007.34275,130.681818 C2016.1822,130.681818 2023.91672,131.628788 2030.54631,133.522727 L2024.39026,164.299242 C2020.28623,162.72096 2014.28803,161.931818 2006.39567,161.931818 C1994.39927,161.931818 1984.13919,164.299242 1975.61543,169.034091 C1967.09167,173.453283 1959.98854,179.292929 1954.30604,186.55303 C1948.62353,193.497475 1944.36166,201.073232 1941.5204,209.280303 C1938.99485,217.487374 1937.73207,225.378788 1937.73207,232.954545 L1937.73207,357.954545 L1906.47829,357.954545 L1906.47829,205.492424 Z M2091.6431,236.268939 L2196.2959,136.363636 L2243.17656,136.363636 L2132.84126,237.689394 L2255.01511,357.954545 L2206.71382,357.954545 L2091.6431,241.477273 L2091.6431,357.954545 L2060.38933,357.954545 L2060.38933,0 L2091.6431,0 L2091.6431,236.268939 Z M2478.73414,247.159091 C2478.73414,234.848485 2476.68212,223.32702 2472.57809,212.594697 C2468.78975,201.862374 2463.2651,192.550505 2456.00412,184.659091 C2448.74314,176.767677 2439.90369,170.612374 2429.48576,166.193182 C2419.38353,161.458333 2407.86068,159.090909 2394.91719,159.090909 C2381.97371,159.090909 2370.29301,161.458333 2359.87508,166.193182 C2349.77285,170.612374 2341.09125,176.767677 2333.83027,184.659091 C2326.88498,192.550505 2321.36033,201.862374 2317.24643,212.594697 C2313.46796,223.32702 2311.57379,234.848485 2311.57379,247.159091 C2311.57379,259.469697 2313.46796,270.991162 2317.24643,281.723485 C2321.36033,292.455808 2326.88498,301.767677 2333.83027,309.659091 C2341.09125,317.550505 2349.77285,323.863636 2359.87508,328.598485 C2370.29301,333.017677 2381.97371,335.227273 2394.91719,335.227273 C2407.86068,335.227273 2419.38353,333.017677 2429.48576,328.598485 C2439.90369,323.863636 2448.74314,317.550505 2456.00412,309.659091 C2463.2651,301.767677 2468.78975,292.455808 2472.57809,281.723485 C2476.68212,270.991162 2478.73414,259.469697 2478.73414,247.159091 Z M2512.82917,247.159091 C2512.82917,263.888889 2509.83007,279.356061 2503.83187,293.560606 C2498.14936,307.765152 2490.09915,320.075758 2479.68122,330.492424 C2469.2633,340.909091 2456.79336,349.116162 2442.2714,355.113636 C2428.06514,360.795455 2412.2804,363.636364 2394.91719,363.636364 C2377.86968,363.636364 2362.08494,360.795455 2347.56299,355.113636 C2333.35673,349.116162 2321.04463,340.909091 2310.62671,330.492424 C2300.20878,320.075758 2292.00072,307.765152 2285.99265,293.560606 C2280.32002,279.356061 2277.47876,263.888889 2277.47876,247.159091 C2277.47876,230.429293 2280.32002,214.962121 2285.99265,200.757576 C2292.00072,186.55303 2300.20878,174.242424 2310.62671,163.825758 C2321.04463,153.409091 2333.35673,145.359848 2347.56299,139.67803 C2362.08494,133.680556 2377.86968,130.681818 2394.91719,130.681818 C2412.2804,130.681818 2428.06514,133.680556 2442.2714,139.67803 C2456.79336,145.359848 2469.2633,153.409091 2479.68122,163.825758 C2490.09915,174.242424 2498.14936,186.55303 2503.83187,200.757576 C2509.83007,214.962121 2512.82917,230.429293 2512.82917,247.159091 Z M2729.60291,357.954545 C2728.97152,351.957071 2728.49798,346.117424 2728.18228,340.435606 C2728.18228,334.438131 2728.18228,328.440657 2728.18228,322.443182 L2727.2352,322.443182 C2723.76256,328.440657 2719.34283,333.964646 2713.97602,339.015152 C2708.60921,344.065657 2702.61101,348.484848 2695.98142,352.272727 C2689.35183,355.744949 2682.2487,358.42803 2674.67203,360.32197 C2667.41105,362.531566 2660.15007,363.636364 2652.88909,363.636364 C2624.47657,363.636364 2603.48287,356.218434 2589.908,341.382576 C2576.33313,326.231061 2569.54569,304.766414 2569.54569,276.988636 L2569.54569,136.363636 L2600.79947,136.363636 L2600.79947,258.996212 C2600.79947,271.306818 2601.74655,282.19697 2603.64072,291.666667 C2605.53489,301.136364 2608.69184,309.185606 2613.11156,315.814394 C2617.84698,322.127525 2624.00303,327.020202 2631.5797,330.492424 C2639.47207,333.64899 2649.25861,335.227273 2660.93931,335.227273 C2662.51778,335.227273 2666.93751,334.59596 2674.19849,333.333333 C2681.45947,332.070707 2689.03614,328.598485 2696.92851,322.916667 C2705.13657,317.234848 2712.39755,308.712121 2718.71144,297.348485 C2725.02533,285.984848 2728.18228,270.20202 2728.18228,250 L2728.18228,136.363636 L2759.43606,136.363636 L2759.43606,309.185606 C2759.43606,315.183081 2759.59391,322.758838 2759.9096,331.912879 C2760.54099,341.066919 2761.17238,349.747475 2761.80377,357.954545 L2729.60291,357.954545 Z M2947.27441,164.772727 L2883.34623,164.772727 L2883.34623,295.454545 C2883.34623,303.661616 2884.13547,310.448232 2885.71394,315.814394 C2887.29241,320.864899 2889.50228,324.810606 2892.34353,327.651515 C2895.18478,330.492424 2898.49958,332.544192 2902.28791,333.806818 C2906.39194,334.753788 2910.81167,335.227273 2915.54709,335.227273 C2920.9139,335.227273 2926.43856,334.438131 2932.12106,332.859848 C2937.80357,331.281566 2943.01253,329.229798 2947.74795,326.704545 L2949.16858,355.587121 C2937.48787,360.953283 2923.43946,363.636364 2907.02333,363.636364 C2901.02513,363.636364 2894.71124,362.847222 2888.08165,361.268939 C2881.76776,359.690657 2875.9274,356.691919 2870.56059,352.272727 C2865.19378,347.853535 2860.77406,341.856061 2857.30142,334.280303 C2853.82877,326.704545 2852.09245,316.761364 2852.09245,304.450758 L2852.09245,164.772727 L2805.21179,164.772727 L2805.21179,136.363636 L2852.09245,136.363636 L2852.09245,73.8636364 L2883.34623,73.8636364 L2883.34623,136.363636 L2947.27441,136.363636 L2947.27441,164.772727 Z M3107.34149,188.920455 C3102.60607,179.766414 3096.29217,172.506313 3088.39981,167.140152 C3080.50744,161.77399 3070.87875,159.090909 3059.51374,159.090909 C3054.14693,159.090909 3048.62227,159.722222 3042.93977,160.984848 C3037.57296,162.247475 3032.67969,164.299242 3028.25996,167.140152 C3023.84024,169.665404 3020.20975,172.979798 3017.3685,177.083333 C3014.84294,181.186869 3013.58016,186.237374 3013.58016,192.234848 C3013.58016,202.651515 3017.21065,210.227273 3024.47163,214.962121 C3031.73261,219.69697 3042.62407,223.800505 3057.14603,227.272727 L3088.87335,234.848485 C3104.34239,238.320707 3117.12802,245.42298 3127.23025,256.155303 C3137.64818,266.57197 3142.85714,279.671717 3142.85714,295.454545 C3142.85714,307.449495 3140.33159,317.866162 3135.28047,326.704545 C3130.54505,335.227273 3124.07331,342.329545 3115.86525,348.011364 C3107.97288,353.377525 3098.81773,357.323232 3088.39981,359.848485 C3077.98188,362.373737 3067.40611,363.636364 3056.67249,363.636364 C3039.62497,363.636364 3023.68239,360.479798 3008.84474,354.166667 C2994.32278,347.537879 2981.85284,336.332071 2971.43492,320.549242 L2998.42682,302.083333 C3004.74071,312.184343 3012.63308,320.233586 3022.10392,326.231061 C3031.89045,332.228535 3043.41331,335.227273 3056.67249,335.227273 C3062.98638,335.227273 3069.30028,334.59596 3075.61417,333.333333 C3081.92806,331.755051 3087.45272,329.545455 3092.18814,326.704545 C3097.23926,323.54798 3101.18544,319.602273 3104.02669,314.867424 C3107.18364,310.132576 3108.76211,304.608586 3108.76211,298.295455 C3108.76211,287.247475 3104.65808,279.356061 3096.45002,274.621212 C3088.24196,269.570707 3078.29758,265.625 3066.61687,262.784091 L3036.31018,255.681818 C3032.52184,254.734848 3027.31288,253.156566 3020.68329,250.94697 C3014.3694,248.737374 3008.0555,245.42298 3001.74161,241.003788 C2995.74341,236.584596 2990.53445,230.902778 2986.11472,223.958333 C2981.695,216.698232 2979.48513,207.859848 2979.48513,197.443182 C2979.48513,186.079545 2981.695,176.136364 2986.11472,167.613636 C2990.85014,159.090909 2997.00619,152.146465 3004.58286,146.780303 C3012.47523,141.414141 3021.31468,137.468434 3031.10122,134.943182 C3040.88775,132.102273 3050.98998,130.681818 3061.40791,130.681818 C3076.87695,130.681818 3091.24106,133.680556 3104.50024,139.67803 C3117.75941,145.675505 3128.01949,155.934343 3135.28047,170.454545 L3107.34149,188.920455 Z" id="Shape"></path>
        </g>
    </g>
</svg>