<?xml version="1.0" encoding="UTF-8"?>
<svg width="564px" height="77px" viewBox="0 0 564 77" version="1.1" xmlns="http://www.w3.org/2000/svg" xmlns:xlink="http://www.w3.org/1999/xlink">
    <title>bw_logo_h</title>
    <g id="Page-1" stroke="none" stroke-width="1" fill="none" fill-rule="evenodd">
        <g id="bw_logo_h" fill="#000000" fill-rule="nonzero">
            <path d="M27.8355542,77 C46.5342217,77 59,64.29124 59,45.1392456 C59,13.2783394 32.0143853,0 13.2802998,0 C9.95137796,0 7.82652938,1.17476137 7.82652938,3.45307908 C7.82652938,4.34305074 8.21608117,5.26860971 8.95978195,6.12297886 C13.1740612,11.1780343 17.3883253,17.19416 17.4591914,24.2071257 C17.4591914,25.0970366 17.3883253,25.9514058 17.1405208,26.8770103 C15.1926862,22.7119417 11.5450031,19.93528 8.28691702,19.93528 C6.83493337,19.93528 5.84333737,21.0032035 5.84333737,22.6051646 C5.84333737,23.5307691 6.09123259,25.7023097 6.09123259,27.2685772 C6.09123259,35.2426892 0,39.9061017 0,52.7573325 C0,67.3171497 11.0846305,77 27.8355542,77 Z M28.649985,66.9968182 C22.0275592,66.9968182 17.636281,62.9740686 17.636281,56.9934846 C17.636281,50.7281109 22.0630677,48.4854868 22.629694,44.4627372 C22.700409,44.1424057 22.9130072,44.0356285 23.1608117,44.2491829 C24.7898245,45.7088251 25.8523622,47.4886469 26.7376591,49.5534103 C28.6146275,46.9903028 29.4999244,41.5792983 28.8979407,35.7410332 C28.8625832,35.4207017 29.0750303,35.2426892 29.3937009,35.3494663 C37.1493793,39.0161909 41.1866294,46.7767485 41.1866294,53.7184788 C41.1866294,60.7669863 37.0786644,66.9968182 28.649985,66.9968182 Z" id="Shape"></path>
            <path d="M106.656348,52.8248588 C106.656348,55.5178908 106.218161,57.7702448 105.341788,59.5819209 C104.514102,61.393597 103.44298,62.8625235 102.12842,63.9887006 C100.81386,65.0659134 99.3532386,65.8493409 97.7465547,66.3389831 C96.1885581,66.779661 94.6792489,67 93.2186271,67 L80,67 L80,15 L91.6849743,15 C93.1455961,15 94.6549052,15.1958569 96.2129018,15.5875706 C97.7708984,15.9792844 99.1828328,16.6647834 100.448705,17.6440678 C101.763265,18.5743879 102.834387,19.8719397 103.662073,21.5367232 C104.489759,23.1525424 104.903601,25.2090395 104.903601,27.7062147 C104.903601,29.4689266 104.684508,31.0112994 104.246322,32.3333333 C103.856822,33.606403 103.321261,34.73258 102.639638,35.7118644 C101.958014,36.6421846 101.179016,37.4256121 100.302643,38.0621469 C99.4262697,38.6497175 98.525553,39.1148776 97.6004925,39.4576271 L97.6004925,39.6045198 C98.525553,39.8003766 99.5236445,40.1920904 100.594767,40.779661 C101.66589,41.3672316 102.639638,42.1996234 103.516011,43.2768362 C104.441071,44.3050847 105.195726,45.6271186 105.779974,47.2429379 C106.364223,48.8097928 106.656348,50.6704331 106.656348,52.8248588 Z M100.156581,28.440678 C100.156581,26.7269303 99.8888,25.2824859 99.3532386,24.1073446 C98.8663647,22.9322034 98.1847412,22.0018832 97.3083681,21.3163842 C96.4806825,20.5819209 95.5312783,20.0677966 94.4601557,19.7740113 C93.389033,19.480226 92.2935667,19.3333333 91.1737567,19.3333333 L84.8200519,19.3333333 L84.8200519,37.7683616 L91.3198188,37.7683616 C92.3909415,37.7683616 93.4377204,37.5969868 94.4601557,37.2542373 C95.5312783,36.9114878 96.4806825,36.3728814 97.3083681,35.6384181 C98.1360538,34.8549906 98.8176773,33.8757062 99.3532386,32.700565 C99.8888,31.5254237 100.156581,30.1054614 100.156581,28.440678 Z M101.617202,52.5310734 C101.617202,50.5725047 101.325078,48.9322034 100.740829,47.6101695 C100.156581,46.2391714 99.401926,45.1374765 98.4768656,44.3050847 C97.5518051,43.472693 96.5050262,42.8606403 95.3365287,42.4689266 C94.2167187,42.0772128 93.1212524,41.8813559 92.0501297,41.8813559 L84.8200519,41.8813559 L84.8200519,62.6666667 L92.0501297,62.6666667 C93.3646893,62.6666667 94.6062178,62.4708098 95.7747153,62.079096 C96.9432127,61.6873823 97.9656479,61.0753296 98.842021,60.2429379 C99.7183941,59.4105461 100.400018,58.3578154 100.886892,57.0847458 C101.373765,55.8116761 101.617202,54.2937853 101.617202,52.5310734 Z M115.517149,67 L115.517149,15 L136.331009,15 L136.331009,19.5536723 L120.483263,19.5536723 L120.483263,37.8418079 L135.308574,37.8418079 L135.308574,42.1751412 L120.483263,42.1751412 L120.483263,62.3728814 L137.06132,62.3728814 L137.06132,67 L115.517149,67 Z M155.09726,19.4067797 L155.09726,67 L150.058572,67 L150.058572,19.4067797 L140.126191,19.4067797 L140.126191,15 L165.10252,15 L165.10252,19.4067797 L155.09726,19.4067797 Z M180.0602,19.4067797 L180.0602,67 L175.021054,67 L175.021054,19.4067797 L165.087305,19.4067797 L165.087305,15 L190.065459,15 L190.065459,19.4067797 L180.0602,19.4067797 Z M195.965762,67 L195.965762,15 L216.779623,15 L216.779623,19.5536723 L200.931876,19.5536723 L200.931876,37.8418079 L215.757187,37.8418079 L215.757187,42.1751412 L200.931876,42.1751412 L200.931876,62.3728814 L217.509934,62.3728814 L217.509934,67 L195.965762,67 Z M247.522668,67 L238.174689,42.9096045 L231.52886,42.9096045 L231.52886,67 L226.489715,67 L226.489715,15 L238.905,15 C240.609059,15 242.240086,15.2448211 243.798083,15.7344633 C245.404767,16.1751412 246.816701,16.9340866 248.033886,18.0112994 C249.299758,19.0885122 250.29785,20.5084746 251.028161,22.2711864 C251.807159,24.0338983 252.196658,26.1883239 252.196658,28.7344633 C252.196658,30.9378531 251.904534,32.8474576 251.320285,34.4632768 C250.784724,36.0301318 250.054413,37.3521657 249.129352,38.4293785 C248.252979,39.5065913 247.254888,40.3389831 246.135078,40.9265537 C245.063955,41.5141243 243.992832,41.8813559 242.92171,42.0282486 L253,67 L247.522668,67 Z M247.230544,28.9548023 C247.230544,27.094162 246.962763,25.5517891 246.427202,24.3276836 C245.940328,23.0546139 245.258705,22.0508475 244.382331,21.3163842 C243.554646,20.5819209 242.580898,20.0677966 241.461088,19.7740113 C240.389965,19.480226 239.270155,19.3333333 238.101658,19.3333333 L231.52886,19.3333333 L231.52886,38.8700565 L238.320751,38.8700565 C241.095932,38.8700565 243.262521,38.0131827 244.820518,36.299435 C246.427202,34.5367232 247.230544,32.0885122 247.230544,28.9548023 Z" id="Shape"></path>
            <path d="M278.688187,33 L286.564139,60.7083333 L286.70999,60.7083333 L295.825674,33 L300.784607,33 L309.900291,60.7083333 L310.046142,60.7083333 L317.922094,33 L323.610281,33 L312.81731,67.125 L307.420825,67.125 L298.378066,39.125 L298.232215,39.125 L289.189456,67.125 L283.792971,67.125 L273,33 L278.688187,33 Z M359.102199,50.0625 C359.102199,48.1666667 358.786189,46.3923611 358.154168,44.7395833 C357.570764,43.0868056 356.719967,41.6527778 355.601776,40.4375 C354.483586,39.2222222 353.12231,38.2743056 351.517949,37.59375 C349.962206,36.8645833 348.187686,36.5 346.19439,36.5 C344.201093,36.5 342.402265,36.8645833 340.797904,37.59375 C339.242161,38.2743056 337.905194,39.2222222 336.787003,40.4375 C335.717429,41.6527778 334.866632,43.0868056 334.234611,44.7395833 C333.651208,46.3923611 333.359506,48.1666667 333.359506,50.0625 C333.359506,51.9583333 333.651208,53.7326389 334.234611,55.3854167 C334.866632,57.0381944 335.717429,58.4722222 336.787003,59.6875 C337.905194,60.9027778 339.242161,61.875 340.797904,62.6041667 C342.402265,63.2847222 344.201093,63.625 346.19439,63.625 C348.187686,63.625 349.962206,63.2847222 351.517949,62.6041667 C353.12231,61.875 354.483586,60.9027778 355.601776,59.6875 C356.719967,58.4722222 357.570764,57.0381944 358.154168,55.3854167 C358.786189,53.7326389 359.102199,51.9583333 359.102199,50.0625 Z M364.352833,50.0625 C364.352833,52.6388889 363.890972,55.0208333 362.967249,57.2083333 C362.092144,59.3958333 360.85241,61.2916667 359.24805,62.8958333 C357.64369,64.5 355.723319,65.7638889 353.486937,66.6875 C351.299173,67.5625 348.868324,68 346.19439,68 C343.569072,68 341.138223,67.5625 338.901842,66.6875 C336.714078,65.7638889 334.818015,64.5 333.213655,62.8958333 C331.609294,61.2916667 330.345253,59.3958333 329.42153,57.2083333 C328.546424,55.0208333 328.108871,52.6388889 328.108871,50.0625 C328.108871,47.4861111 328.546424,45.1041667 329.42153,42.9166667 C330.345253,40.7291667 331.609294,38.8333333 333.213655,37.2291667 C334.818015,35.625 336.714078,34.3854167 338.901842,33.5104167 C341.138223,32.5868056 343.569072,32.125 346.19439,32.125 C348.868324,32.125 351.299173,32.5868056 353.486937,33.5104167 C355.723319,34.3854167 357.64369,35.625 359.24805,37.2291667 C360.85241,38.8333333 362.092144,40.7291667 362.967249,42.9166667 C363.890972,45.1041667 364.352833,47.4861111 364.352833,50.0625 Z M373.597657,43.6458333 C373.597657,42.1388889 373.54904,40.6076389 373.451806,39.0520833 C373.403189,37.4965278 373.354572,35.4791667 373.305955,33 L378.046111,33 L378.046111,39.34375 L378.191962,39.34375 C378.532281,38.4201389 379.018451,37.5451389 379.650471,36.71875 C380.282492,35.84375 381.036056,35.0659722 381.911161,34.3854167 C382.834884,33.7048611 383.880149,33.1701389 385.046957,32.78125 C386.262381,32.34375 387.623657,32.125 389.130783,32.125 C390.492059,32.125 391.683175,32.2708333 392.704132,32.5625 L391.756101,37.3020833 C391.12408,37.0590278 390.200357,36.9375 388.984932,36.9375 C387.137487,36.9375 385.557435,37.3020833 384.244776,38.03125 C382.932118,38.7118056 381.838236,39.6111111 380.96313,40.7291667 C380.088024,41.7986111 379.431695,42.9652778 378.994142,44.2291667 C378.605206,45.4930556 378.410738,46.7083333 378.410738,47.875 L378.410738,67.125 L373.597657,67.125 L373.597657,43.6458333 Z M402.113038,48.3854167 L418.229568,33 L425.44919,33 L408.457554,48.6041667 L427.272327,67.125 L419.833929,67.125 L402.113038,49.1875 L402.113038,67.125 L397.299956,67.125 L397.299956,12 L402.113038,12 L402.113038,48.3854167 Z M461.725057,50.0625 C461.725057,48.1666667 461.409047,46.3923611 460.777026,44.7395833 C460.193622,43.0868056 459.342825,41.6527778 458.224634,40.4375 C457.106444,39.2222222 455.745168,38.2743056 454.140808,37.59375 C452.585064,36.8645833 450.810544,36.5 448.817248,36.5 C446.823951,36.5 445.025123,36.8645833 443.420762,37.59375 C441.865019,38.2743056 440.528052,39.2222222 439.409861,40.4375 C438.340288,41.6527778 437.48949,43.0868056 436.85595,44.7395833 C436.274066,46.3923611 435.982364,48.1666667 435.982364,50.0625 C435.982364,51.9583333 436.274066,53.7326389 436.85595,55.3854167 C437.48949,57.0381944 438.340288,58.4722222 439.409861,59.6875 C440.528052,60.9027778 441.865019,61.875 443.420762,62.6041667 C445.025123,63.2847222 446.823951,63.625 448.817248,63.625 C450.810544,63.625 452.585064,63.2847222 454.140808,62.6041667 C455.745168,61.875 457.106444,60.9027778 458.224634,59.6875 C459.342825,58.4722222 460.193622,57.0381944 460.777026,55.3854167 C461.409047,53.7326389 461.725057,51.9583333 461.725057,50.0625 Z M466.975692,50.0625 C466.975692,52.6388889 466.51383,55.0208333 465.590107,57.2083333 C464.715002,59.3958333 463.475269,61.2916667 461.870908,62.8958333 C460.266548,64.5 458.346177,65.7638889 456.109795,66.6875 C453.922031,67.5625 451.491182,68 448.817248,68 C446.191931,68 443.761081,67.5625 441.5247,66.6875 C439.336936,65.7638889 437.440873,64.5 435.836513,62.8958333 C434.232152,61.2916667 432.968111,59.3958333 432.042869,57.2083333 C431.169282,55.0208333 430.731729,52.6388889 430.731729,50.0625 C430.731729,47.4861111 431.169282,45.1041667 432.042869,42.9166667 C432.968111,40.7291667 434.232152,38.8333333 435.836513,37.2291667 C437.440873,35.625 439.336936,34.3854167 441.5247,33.5104167 C443.761081,32.5868056 446.191931,32.125 448.817248,32.125 C451.491182,32.125 453.922031,32.5868056 456.109795,33.5104167 C458.346177,34.3854167 460.266548,35.625 461.870908,37.2291667 C463.475269,38.8333333 464.715002,40.7291667 465.590107,42.9166667 C466.51383,45.1041667 466.975692,47.4861111 466.975692,50.0625 Z M500.358848,67.125 C500.261614,66.2013889 500.188688,65.3020833 500.140071,64.4270833 C500.140071,63.5034722 500.140071,62.5798611 500.140071,61.65625 L499.99422,61.65625 C499.459434,62.5798611 498.778796,63.4305556 497.952307,64.2083333 C497.125818,64.9861111 496.202096,65.6666667 495.181139,66.25 C494.160182,66.7847222 493.0663,67.1979167 491.899493,67.4895833 C490.781302,67.8298611 489.663111,68 488.544921,68 C484.169392,68 480.936362,66.8576389 478.845832,64.5729167 C476.755302,62.2395833 475.710037,58.9340278 475.710037,54.65625 L475.710037,33 L480.523118,33 L480.523118,51.8854167 C480.523118,53.78125 480.668969,55.4583333 480.960671,56.9166667 C481.252373,58.375 481.738543,59.6145833 482.419181,60.6354167 C483.148435,61.6076389 484.096466,62.3611111 485.263274,62.8958333 C486.478699,63.3819444 487.985825,63.625 489.784654,63.625 C490.027739,63.625 490.708376,63.5277778 491.826567,63.3333333 C492.944758,63.1388889 494.111565,62.6041667 495.32699,61.7291667 C496.591032,60.8541667 497.709222,59.5416667 498.681562,57.7916667 C499.653902,56.0416667 500.140071,53.6111111 500.140071,50.5 L500.140071,33 L504.953153,33 L504.953153,59.6145833 C504.953153,60.5381944 504.977461,61.7048611 505.026078,63.1145833 C505.123312,64.5243056 505.220546,65.8611111 505.31778,67.125 L500.358848,67.125 Z M533.880259,37.375 L524.035319,37.375 L524.035319,57.5 C524.035319,58.7638889 524.156862,59.8090278 524.399947,60.6354167 C524.643032,61.4131944 524.983351,62.0208333 525.420903,62.4583333 C525.858456,62.8958333 526.368935,63.2118056 526.952338,63.40625 C527.584359,63.5520833 528.264997,63.625 528.994252,63.625 C529.820741,63.625 530.671538,63.5034722 531.546643,63.2604167 C532.421749,63.0173611 533.223929,62.7013889 533.953184,62.3125 L534.171961,66.7604167 C532.373132,67.5868056 530.209676,68 527.681593,68 C526.757871,68 525.785531,67.8784722 524.764574,67.6354167 C523.792234,67.3923611 522.89282,66.9305556 522.066331,66.25 C521.239843,65.5694444 520.559205,64.6458333 520.024418,63.4791667 C519.489631,62.3125 519.222238,60.78125 519.222238,58.8854167 L519.222238,37.375 L512.002616,37.375 L512.002616,33 L519.222238,33 L519.222238,23.375 L524.035319,23.375 L524.035319,33 L533.880259,33 L533.880259,37.375 Z M558.530589,41.09375 C557.801334,39.6840278 556.828995,38.5659722 555.61357,37.7395833 C554.398146,36.9131944 552.915328,36.5 551.165116,36.5 C550.338627,36.5 549.48783,36.5972222 548.612724,36.7916667 C547.786236,36.9861111 547.032672,37.3020833 546.352035,37.7395833 C545.671397,38.1284722 545.112301,38.6388889 544.674749,39.2708333 C544.285813,39.9027778 544.091345,40.6805556 544.091345,41.6041667 C544.091345,43.2083333 544.65044,44.375 545.768631,45.1041667 C546.886821,45.8333333 548.564107,46.4652778 550.800489,47 L555.686496,48.1666667 C558.068728,48.7013889 560.037716,49.7951389 561.593459,51.4479167 C563.19782,53.0520833 564,55.0694444 564,57.5 C564,59.3472222 563.611064,60.9513889 562.833192,62.3125 C562.103938,63.625 561.107289,64.71875 559.843248,65.59375 C558.627823,66.4201389 557.217931,67.0277778 555.61357,67.4166667 C554.00921,67.8055556 552.380541,68 550.727563,68 C548.102246,68 545.647088,67.5138889 543.36209,66.5416667 C541.125709,65.5208333 539.205338,63.7951389 537.600977,61.3645833 L541.75773,58.5208333 C542.730069,60.0763889 543.945494,61.3159722 545.404003,62.2395833 C546.91113,63.1631944 548.68565,63.625 550.727563,63.625 C551.699903,63.625 552.672243,63.5277778 553.644582,63.3333333 C554.616922,63.0902778 555.467719,62.75 556.196974,62.3125 C556.974846,61.8263889 557.582558,61.21875 558.020111,60.4895833 C558.506281,59.7604167 558.749366,58.9097222 558.749366,57.9375 C558.749366,56.2361111 558.117345,55.0208333 556.853303,54.2916667 C555.589262,53.5138889 554.057827,52.90625 552.258998,52.46875 L547.591768,51.375 C547.008364,51.2291667 546.206184,50.9861111 545.185227,50.6458333 C544.212887,50.3055556 543.240548,49.7951389 542.268208,49.1145833 C541.344485,48.4340278 540.542305,47.5590278 539.861667,46.4895833 C539.181029,45.3715278 538.84071,44.0104167 538.84071,42.40625 C538.84071,40.65625 539.181029,39.125 539.861667,37.8125 C540.590922,36.5 541.538953,35.4305556 542.705761,34.6041667 C543.921185,33.7777778 545.282461,33.1701389 546.789587,32.78125 C548.296714,32.34375 549.852457,32.125 551.456818,32.125 C553.83905,32.125 556.051123,32.5868056 558.093036,33.5104167 C560.13495,34.4340278 561.715002,36.0138889 562.833192,38.25 L558.530589,41.09375 Z" id="Shape"></path>
        </g>
    </g>
</svg>